<svg width="250" height="249" viewBox="0 0 250 249" fill="none" xmlns="http://www.w3.org/2000/svg">
<path d="M231.127 125.367L241.073 125.828L240.702 133.827L230.756 133.366L230.816 132.068L239.598 132.475L239.848 127.073L231.067 126.666L231.127 125.367Z" fill="white"/>
<path d="M229.743 139.834C229.847 139.128 230.076 138.492 230.43 137.926C230.795 137.374 231.243 136.912 231.774 136.54C232.316 136.182 232.907 135.928 233.548 135.778C234.201 135.629 234.867 135.605 235.548 135.706C236.254 135.81 236.892 136.026 237.461 136.355C238.044 136.685 238.535 137.105 238.937 137.615C239.351 138.127 239.646 138.699 239.824 139.33C240.012 139.976 240.054 140.652 239.95 141.358C239.846 142.063 239.611 142.692 239.247 143.244C238.895 143.797 238.447 144.259 237.903 144.63C237.371 145.002 236.779 145.262 236.126 145.411C235.486 145.561 234.813 145.584 234.107 145.48C233.426 145.38 232.795 145.164 232.213 144.834C231.643 144.505 231.151 144.085 230.737 143.573C230.334 143.076 230.038 142.504 229.85 141.859C229.673 141.227 229.637 140.552 229.743 139.834ZM235.337 137.007C234.606 136.9 233.914 136.959 233.263 137.185C232.622 137.425 232.085 137.79 231.653 138.28C231.232 138.772 230.974 139.346 230.877 140.001C230.781 140.656 230.869 141.281 231.142 141.875C231.415 142.469 231.83 142.975 232.387 143.391C232.956 143.81 233.6 144.073 234.318 144.178C235.049 144.286 235.742 144.221 236.395 143.982C237.048 143.744 237.591 143.38 238.024 142.89C238.457 142.4 238.722 141.827 238.818 141.171C238.915 140.516 238.82 139.89 238.535 139.295C238.247 138.711 237.825 138.211 237.268 137.794C236.724 137.379 236.08 137.117 235.337 137.007Z" fill="white"/>
<path d="M227.328 152.401L231.365 153.43C231.281 152.987 231.244 152.537 231.255 152.08C231.279 151.626 231.354 151.152 231.479 150.658C231.75 149.596 232.226 148.863 232.908 148.458C233.586 148.066 234.487 148.013 235.611 148.299L238.463 149.025L238.142 150.285L235.456 149.601C234.592 149.38 233.919 149.393 233.435 149.638C232.949 149.895 232.607 150.413 232.409 151.191C232.299 151.623 232.238 152.068 232.227 152.525C232.215 152.982 232.255 153.367 232.347 153.68L236.976 154.859L236.656 156.118L227.007 153.66L227.328 152.401Z" fill="white"/>
<path d="M225.953 157.248L235.288 160.711L234.836 161.929L230.823 160.44L228.842 165.78L232.856 167.269L232.404 168.487L223.068 165.024L223.52 163.806L227.749 165.374L229.73 160.035L225.501 158.466L225.953 157.248Z" fill="white"/>
<path d="M221.86 167.855L230.749 172.297L230.168 173.46L222.852 169.803L227.478 178.887L226.956 179.93L218.05 175.48L218.631 174.317L225.828 177.914L221.296 168.983L221.86 167.855Z" fill="white"/>
<path d="M211.197 185.864C211.616 185.27 212.111 184.801 212.682 184.455C213.256 184.128 213.873 183.916 214.533 183.82C215.186 183.735 215.841 183.768 216.498 183.919C217.147 184.081 217.759 184.364 218.331 184.768C219.102 185.312 219.683 185.979 220.076 186.771C220.469 187.562 220.636 188.397 220.577 189.276C220.519 190.154 220.207 190.995 219.642 191.796C219.106 192.556 218.455 193.103 217.69 193.436C216.935 193.777 216.162 193.879 215.37 193.741L215.769 192.479C216.347 192.544 216.897 192.449 217.42 192.194C217.946 191.957 218.385 191.588 218.738 191.089C219.12 190.547 219.328 189.954 219.362 189.308C219.397 188.662 219.265 188.031 218.967 187.415C218.661 186.809 218.196 186.286 217.571 185.846C216.957 185.413 216.304 185.155 215.614 185.073C214.923 184.992 214.269 185.068 213.651 185.303C213.044 185.545 212.549 185.937 212.167 186.478C211.918 186.832 211.742 187.214 211.639 187.625C211.529 188.047 211.493 188.45 211.533 188.837C211.575 189.241 211.692 189.573 211.883 189.832L210.833 190.658C210.55 190.241 210.374 189.75 210.304 189.186C210.237 188.64 210.277 188.075 210.423 187.493C210.572 186.927 210.83 186.384 211.197 185.864Z" fill="white"/>
<path d="M207.772 190.795L215.329 197.278L212.094 201.049C211.729 201.475 211.33 201.754 210.898 201.886C210.475 202.027 210.061 202.049 209.656 201.954C209.243 201.868 208.877 201.688 208.557 201.414C208.151 201.066 207.867 200.654 207.704 200.179C207.551 199.712 207.55 199.224 207.7 198.715C207.201 199.043 206.671 199.201 206.11 199.189C205.549 199.178 205.037 198.973 204.573 198.575C204.166 198.227 203.901 197.822 203.775 197.362C203.641 196.911 203.641 196.442 203.776 195.952C203.902 195.473 204.155 195.011 204.537 194.566L207.772 190.795ZM207.674 192.347L205.273 195.147C205.057 195.398 204.925 195.679 204.876 195.99C204.829 196.319 204.862 196.633 204.975 196.931C205.08 197.24 205.249 197.493 205.481 197.692C205.732 197.908 206.009 198.045 206.312 198.103C206.624 198.17 206.926 198.16 207.218 198.075C207.509 197.989 207.763 197.82 207.979 197.569L210.43 194.712L207.674 192.347ZM211.112 195.297L208.909 197.864C208.694 198.115 208.571 198.396 208.54 198.705C208.509 199.015 208.555 199.314 208.676 199.603C208.798 199.892 208.975 200.136 209.207 200.335C209.555 200.633 209.959 200.779 210.419 200.771C210.871 200.772 211.25 200.594 211.557 200.236L213.81 197.611L211.112 195.297Z" fill="white"/>
<path d="M200.768 198.612L207.834 205.627L206.918 206.55L199.852 199.535L200.768 198.612ZM209.312 207.095L210.668 208.441L209.753 209.364L208.397 208.017L209.312 207.095Z" fill="white"/>
<path d="M197.406 202.007L203.904 209.526L202.921 210.376L197.572 204.187L198.35 214.352L197.468 215.114L190.957 207.581L191.94 206.731L197.201 212.818L196.452 202.832L197.406 202.007ZM201.502 213.294C202.158 212.727 202.797 212.444 203.42 212.445C204.044 212.445 204.559 212.681 204.968 213.153L204.245 213.778C203.995 213.489 203.68 213.34 203.302 213.33C202.913 213.329 202.493 213.524 202.04 213.916C201.596 214.299 201.353 214.67 201.308 215.028C201.255 215.394 201.347 215.744 201.584 216.078L200.876 216.69C200.468 216.218 200.308 215.673 200.399 215.056C200.489 214.44 200.857 213.852 201.502 213.294Z" fill="white"/>
<path d="M184.553 212.265L189.867 220.685L183.095 224.959L177.781 216.538L178.88 215.845L183.572 223.279L188.145 220.393L183.454 212.958L184.553 212.265Z" fill="white"/>
<path d="M171.164 219.734C171.906 219.366 172.67 219.23 173.456 219.324C174.23 219.424 174.93 219.675 175.555 220.076L172.834 214.578L173.998 214.002L180.222 226.573L179.177 227.09L178.321 225.36C178.244 226.095 177.993 226.781 177.569 227.417C177.15 228.065 176.604 228.556 175.931 228.889C175.314 229.194 174.684 229.343 174.04 229.335C173.402 229.338 172.787 229.216 172.196 228.968C171.604 228.721 171.067 228.368 170.584 227.911C170.096 227.47 169.705 226.953 169.411 226.359C168.998 225.526 168.788 224.67 168.78 223.793C168.767 222.932 168.958 222.141 169.354 221.419C169.75 220.697 170.353 220.135 171.164 219.734ZM171.998 220.6C171.507 220.843 171.115 221.158 170.823 221.544C170.537 221.942 170.341 222.38 170.237 222.858C170.121 223.342 170.093 223.832 170.154 224.328C170.22 224.835 170.367 225.317 170.593 225.774C170.83 226.254 171.142 226.668 171.528 227.017C171.903 227.372 172.326 227.638 172.798 227.817C173.271 227.995 173.755 228.083 174.25 228.079C174.746 228.075 175.228 227.958 175.696 227.726C175.993 227.579 176.273 227.369 176.536 227.097C176.799 226.824 177.026 226.506 177.215 226.142C177.399 225.795 177.523 225.443 177.587 225.084C177.651 224.725 177.632 224.386 177.531 224.067L176.174 221.326C175.782 220.994 175.348 220.733 174.87 220.543C174.398 220.365 173.911 220.272 173.409 220.264C172.902 220.273 172.432 220.386 171.998 220.6Z" fill="white"/>
<path d="M161.153 223.978C161.822 223.732 162.491 223.63 163.157 223.671C163.816 223.728 164.435 223.901 165.016 224.19C165.59 224.495 166.095 224.893 166.533 225.384C166.975 225.887 167.315 226.461 167.552 227.107C167.797 227.777 167.912 228.441 167.895 229.098C167.883 229.768 167.748 230.4 167.492 230.997C167.24 231.605 166.879 232.137 166.409 232.595C165.931 233.068 165.357 233.428 164.687 233.674C164.018 233.919 163.353 234.014 162.695 233.957C162.04 233.912 161.42 233.739 160.835 233.437C160.254 233.148 159.743 232.752 159.3 232.25C158.863 231.759 158.521 231.179 158.275 230.509C158.038 229.863 157.926 229.205 157.939 228.536C157.955 227.878 158.09 227.245 158.342 226.637C158.586 226.045 158.947 225.513 159.425 225.039C159.895 224.582 160.471 224.228 161.153 223.978ZM166.307 227.543C166.053 226.849 165.671 226.27 165.161 225.806C164.644 225.358 164.067 225.06 163.43 224.914C162.797 224.78 162.169 224.827 161.547 225.055C160.925 225.283 160.419 225.659 160.027 226.182C159.635 226.706 159.389 227.311 159.289 228C159.193 228.7 159.27 229.391 159.52 230.073C159.774 230.766 160.162 231.343 160.684 231.804C161.205 232.264 161.785 232.567 162.422 232.713C163.059 232.86 163.689 232.819 164.311 232.591C164.933 232.362 165.437 231.981 165.824 231.445C166.2 230.914 166.437 230.304 166.538 229.616C166.643 228.94 166.566 228.249 166.307 227.543Z" fill="white"/>
<path d="M150.228 227.322C150.957 227.139 151.654 227.115 152.318 227.251C152.983 227.386 153.585 227.642 154.126 228.019C154.667 228.396 155.13 228.851 155.513 229.385C155.888 229.935 156.154 230.525 156.312 231.155C156.463 231.761 156.509 232.387 156.447 233.033C156.386 233.678 156.21 234.287 155.92 234.859C155.621 235.446 155.202 235.952 154.665 236.376C154.131 236.812 153.474 237.127 152.696 237.323C151.769 237.555 150.927 237.549 150.17 237.306C149.412 237.062 148.785 236.655 148.287 236.083L149.125 235.341C149.608 235.851 150.133 236.165 150.702 236.286C151.261 236.421 151.832 236.416 152.412 236.271C153.117 236.094 153.687 235.774 154.122 235.31C154.548 234.862 154.844 234.341 155.011 233.747C155.177 233.154 155.219 232.559 155.135 231.963L150.63 233.092L150.407 232.202L154.912 231.073C154.701 230.443 154.366 229.89 153.905 229.414C153.447 228.951 152.917 228.618 152.314 228.414C151.702 228.226 151.069 228.214 150.414 228.378C149.846 228.521 149.325 228.802 148.853 229.223C148.368 229.647 148.033 230.197 147.848 230.874L146.712 230.666C146.897 229.831 147.315 229.116 147.967 228.519C148.621 227.935 149.375 227.535 150.228 227.322Z" fill="white"/>
<path d="M144.604 228.783L146.094 238.628L144.809 238.822L144.171 234.608L142.698 234.831L140.028 239.546L138.555 239.769L141.591 234.419L136.592 229.995L138.104 229.767L142.517 233.641L143.991 233.418L143.319 228.977L144.604 228.783Z" fill="white"/>
<path d="M131.492 230.344L132.035 239.118L135.582 238.899L135.654 240.062L127.262 240.581L127.19 239.418L130.738 239.198L130.195 230.424L131.492 230.344Z" fill="white"/>
<path d="M114.847 229.897C115.673 229.967 116.397 230.246 117.02 230.734C117.631 231.221 118.1 231.798 118.427 232.465L118.947 226.352L120.241 226.463L119.053 240.439L117.891 240.341L118.055 238.417C117.608 239.006 117.039 239.463 116.346 239.787C115.653 240.125 114.931 240.262 114.182 240.198C113.497 240.14 112.881 239.94 112.334 239.6C111.787 239.272 111.324 238.849 110.946 238.331C110.568 237.813 110.292 237.233 110.116 236.591C109.927 235.962 109.86 235.317 109.916 234.656C109.995 233.73 110.258 232.889 110.706 232.134C111.14 231.391 111.714 230.813 112.426 230.401C113.139 229.989 113.946 229.821 114.847 229.897ZM115.112 231.071C114.566 231.024 114.068 231.09 113.618 231.27C113.167 231.461 112.773 231.735 112.436 232.09C112.086 232.444 111.809 232.848 111.604 233.304C111.398 233.772 111.273 234.26 111.23 234.768C111.185 235.301 111.237 235.817 111.386 236.316C111.523 236.813 111.747 237.261 112.058 237.658C112.37 238.055 112.739 238.381 113.165 238.634C113.59 238.888 114.064 239.037 114.584 239.081C114.914 239.109 115.262 239.075 115.629 238.978C115.995 238.882 116.353 238.727 116.704 238.514C117.041 238.312 117.329 238.074 117.57 237.801C117.811 237.527 117.97 237.228 118.049 236.902L118.308 233.855C118.145 233.368 117.909 232.92 117.598 232.51C117.287 232.112 116.919 231.78 116.494 231.514C116.055 231.259 115.594 231.112 115.112 231.071Z" fill="white"/>
<path d="M108.47 232.281C108.353 232.895 108.077 233.387 107.643 233.758C107.207 234.142 106.659 234.394 106.001 234.515C105.327 234.646 104.584 234.634 103.77 234.478C103.295 234.388 102.808 234.256 102.309 234.083C101.81 233.91 101.375 233.71 101.003 233.484L100.845 234.31C100.688 235.136 100.806 235.839 101.201 236.42C101.596 237.002 102.226 237.374 103.089 237.539C103.615 237.639 104.153 237.638 104.705 237.536C105.241 237.444 105.82 237.262 106.443 236.992L106.759 237.986C106.037 238.303 105.349 238.509 104.695 238.604C104.039 238.713 103.392 238.706 102.754 238.584C101.552 238.355 100.667 237.829 100.097 237.007C99.5277 236.185 99.3587 235.167 99.5903 233.954L100.453 229.429C100.487 229.254 100.474 229.116 100.416 229.014C100.355 228.924 100.244 228.858 100.084 228.814L100.277 227.8C100.418 227.814 100.539 227.824 100.641 227.831C100.744 227.838 100.819 227.852 100.867 227.874C101.177 227.946 101.396 228.092 101.523 228.31C101.65 228.529 101.699 228.746 101.671 228.961L101.554 229.678C102.099 229.199 102.752 228.869 103.513 228.69C104.271 228.523 105.013 228.509 105.739 228.648C106.364 228.767 106.909 229.007 107.372 229.368C107.82 229.738 108.145 230.177 108.347 230.682C108.534 231.198 108.575 231.731 108.47 232.281ZM102.061 230.281C101.89 230.43 101.752 230.578 101.645 230.727C101.539 230.875 101.474 231.012 101.45 231.137L101.178 232.564C101.573 232.808 101.993 233.018 102.44 233.193C102.873 233.367 103.322 233.498 103.785 233.586C104.698 233.76 105.471 233.72 106.104 233.464C106.736 233.209 107.112 232.768 107.231 232.142C107.301 231.78 107.273 231.417 107.147 231.056C107.019 230.708 106.794 230.392 106.471 230.11C106.146 229.841 105.74 229.66 105.252 229.566C104.639 229.449 104.047 229.46 103.476 229.597C102.892 229.732 102.421 229.96 102.061 230.281Z" fill="white"/>
<path d="M95.6047 226.358C96.4863 226.612 97.1919 226.993 97.7214 227.503C98.2474 228.026 98.5878 228.641 98.7424 229.348L97.5819 229.511C97.4724 229.016 97.2324 228.583 96.862 228.211C96.488 227.852 95.9888 227.582 95.3642 227.403C94.6173 227.188 93.9741 227.189 93.4348 227.405C92.8832 227.618 92.5247 228.012 92.3594 228.587C92.2081 229.114 92.2642 229.587 92.5279 230.008C92.7915 230.428 93.2338 230.734 93.8548 230.926L94.8283 231.206L94.5802 232.069L93.5333 231.768C93.2639 231.691 92.9979 231.694 92.7352 231.777C92.4726 231.861 92.2449 232.008 92.052 232.217C91.8592 232.427 91.7188 232.685 91.6309 232.991C91.4937 233.469 91.5543 233.904 91.8127 234.296C92.0588 234.685 92.5064 234.973 93.1554 235.159C93.6942 235.314 94.1789 235.334 94.6096 235.219C95.0246 235.113 95.402 234.883 95.7421 234.53L96.5494 235.319C96.1059 235.802 95.5629 236.123 94.9204 236.283C94.2657 236.439 93.5648 236.41 92.8179 236.196C92.2056 236.02 91.7028 235.763 91.3096 235.424C90.9006 235.095 90.622 234.703 90.4739 234.25C90.3101 233.805 90.3038 233.319 90.4551 232.793C90.5853 232.34 90.8169 231.949 91.1499 231.62C91.4794 231.304 91.8682 231.104 92.3163 231.021C91.8023 230.688 91.4538 230.263 91.2708 229.746C91.0756 229.226 91.0607 228.678 91.2261 228.103C91.3914 227.527 91.687 227.075 92.1127 226.747C92.5385 226.419 93.0524 226.222 93.6546 226.156C94.2567 226.09 94.9067 226.158 95.6047 226.358Z" fill="white"/>
<path d="M85.7732 222.932C86.4364 223.195 87.0029 223.564 87.4727 224.038C87.9259 224.519 88.2728 225.061 88.5135 225.664C88.7376 226.274 88.8494 226.908 88.8488 227.565C88.8436 228.235 88.7141 228.889 88.4604 229.529C88.1973 230.192 87.8405 230.763 87.3899 231.242C86.9347 231.733 86.4129 232.116 85.8245 232.389C85.2315 232.675 84.6074 232.832 83.9521 232.86C83.2803 232.895 82.6128 232.781 81.9496 232.517C81.2864 232.254 80.7282 231.882 80.275 231.401C79.817 230.931 79.4701 230.389 79.2342 229.775C78.9935 229.172 78.8758 228.536 78.881 227.866C78.8816 227.209 79.0134 226.548 79.2765 225.885C79.5302 225.246 79.8847 224.68 80.34 224.189C80.7905 223.71 81.3123 223.328 81.9053 223.042C82.4818 222.764 83.106 222.607 83.7778 222.572C84.4331 222.544 85.0982 222.664 85.7732 222.932ZM87.2418 229.025C87.5143 228.338 87.6153 227.651 87.5447 226.966C87.4577 226.287 87.2253 225.681 86.8476 225.147C86.4653 224.625 85.9662 224.242 85.3504 223.998C84.7346 223.753 84.1063 223.696 83.4655 223.826C82.8247 223.955 82.2376 224.243 81.7041 224.689C81.166 225.148 80.763 225.714 80.4952 226.389C80.2227 227.076 80.1276 227.765 80.2099 228.455C80.2923 229.146 80.5223 229.758 80.9 230.292C81.2777 230.825 81.7744 231.214 82.3902 231.459C83.006 231.703 83.6367 231.754 84.2822 231.613C84.9158 231.467 85.4994 231.171 86.0328 230.724C86.5616 230.29 86.9645 229.723 87.2418 229.025Z" fill="white"/>
<path d="M79.0621 220.34L74.3497 229.111L73.1712 228.478L72.9335 220.562L66.1847 224.725L65.0568 224.119L69.7691 215.348L70.8634 215.936L67.0736 222.989L73.1872 219.202L73.928 219.6L74.178 226.806L77.9678 219.753L79.0621 220.34Z" fill="white"/>
<path d="M61.4555 209.433C62.1894 209.983 62.713 210.591 63.0264 211.256C63.3322 211.931 63.4316 212.627 63.3246 213.343L62.1817 213.083C62.2556 212.581 62.1856 212.09 61.9715 211.611C61.7498 211.143 61.3791 210.713 60.8592 210.323C60.2375 209.857 59.6361 209.629 59.0552 209.639C58.464 209.642 57.9888 209.883 57.6295 210.362C57.3008 210.8 57.1849 211.262 57.2817 211.749C57.3785 212.236 57.683 212.679 58.1952 213.079L59.0055 213.687L58.4666 214.405L57.5951 213.752C57.3709 213.584 57.1212 213.492 56.846 213.477C56.5708 213.461 56.3058 213.517 56.051 213.645C55.7961 213.772 55.5732 213.963 55.3821 214.218C55.084 214.616 54.9859 215.044 55.0878 215.502C55.1795 215.953 55.4955 216.382 56.0357 216.787C56.4842 217.123 56.9301 217.314 57.3735 217.36C57.799 217.408 58.2334 217.328 58.6768 217.119L59.1508 218.144C58.5647 218.437 57.943 218.544 57.2856 218.465C56.6179 218.378 55.9733 218.102 55.3515 217.635C54.8419 217.253 54.4635 216.834 54.2163 216.378C53.9513 215.924 53.8303 215.459 53.8532 214.983C53.8583 214.509 54.0252 214.053 54.3539 213.614C54.6368 213.237 54.9922 212.954 55.4203 212.766C55.8407 212.587 56.2752 212.539 56.7237 212.621C56.3618 212.126 56.1873 211.605 56.2 211.057C56.2026 210.502 56.3835 209.984 56.7428 209.505C57.102 209.026 57.539 208.709 58.0538 208.554C58.5685 208.398 59.1189 208.397 59.7049 208.55C60.291 208.703 60.8745 208.997 61.4555 209.433Z" fill="white"/>
<path d="M52.608 202.317L45.5674 209.358L44.6485 208.439L47.6755 205.412L43.6485 201.385L40.6215 204.412L39.7026 203.493L46.7431 196.452L47.662 197.371L44.4729 200.56L48.4999 204.587L51.689 201.398L52.608 202.317Z" fill="white"/>
<path d="M42.9528 196.535C42.4688 196.93 41.9413 197.129 41.3702 197.134C40.7893 197.147 40.2079 196.988 39.6259 196.657C39.026 196.324 38.4646 195.837 37.9415 195.195C37.6357 194.819 37.3475 194.405 37.0769 193.952C36.8062 193.499 36.6014 193.066 36.4625 192.653L35.8105 193.184C35.1586 193.715 34.7969 194.33 34.7255 195.029C34.6541 195.728 34.896 196.419 35.4512 197.1C35.7892 197.515 36.2021 197.861 36.6901 198.137C37.1601 198.411 37.7203 198.645 38.3707 198.838L37.9734 199.803C37.2172 199.581 36.5581 199.296 35.9959 198.949C35.4238 198.61 34.9325 198.188 34.5222 197.684C33.7497 196.736 33.4098 195.764 33.5024 194.768C33.5951 193.773 34.1205 192.885 35.0787 192.104L38.6495 189.195C38.7878 189.082 38.8674 188.968 38.8883 188.853C38.8993 188.745 38.8574 188.623 38.7627 188.487L39.5628 187.835C39.6612 187.936 39.7475 188.021 39.8217 188.092C39.896 188.163 39.9443 188.223 39.9666 188.27C40.1579 188.525 40.2317 188.777 40.1882 189.026C40.1446 189.275 40.0429 189.473 39.883 189.62L39.332 190.093C40.0582 190.077 40.77 190.245 41.4676 190.597C42.1553 190.957 42.7325 191.423 43.1992 191.996C43.6015 192.49 43.8639 193.024 43.9864 193.598C44.091 194.17 44.058 194.715 43.8874 195.232C43.699 195.747 43.3875 196.181 42.9528 196.535ZM39.333 190.881C39.1062 190.885 38.9045 190.91 38.7278 190.955C38.5511 191.001 38.4134 191.064 38.3146 191.144L37.1885 192.061C37.3337 192.502 37.5206 192.933 37.7491 193.355C37.9697 193.767 38.2288 194.155 38.5265 194.521C39.1139 195.242 39.7319 195.708 40.3805 195.919C41.0291 196.13 41.6003 196.035 42.0942 195.633C42.3806 195.399 42.5919 195.104 42.7281 194.746C42.8543 194.397 42.8847 194.011 42.8193 193.588C42.744 193.172 42.5494 192.772 42.2356 192.387C41.8413 191.903 41.3813 191.53 40.8557 191.268C40.322 190.996 39.8144 190.867 39.333 190.881Z" fill="white"/>
<path d="M38.302 186.147L29.9409 191.553L29.2145 190.43L32.8277 183.383L24.908 183.77L24.2127 182.695L32.5738 177.288L33.2483 178.331L26.5242 182.679L33.7068 182.313L34.1633 183.02L30.9033 189.452L37.6275 185.104L38.302 186.147Z" fill="white"/>
<path d="M31.4996 175.261L22.5936 179.67L22.017 178.505L29.3474 174.876L19.3121 173.084L18.7948 172.039L27.718 167.622L28.2946 168.787L21.0841 172.356L30.94 174.13L31.4996 175.261Z" fill="white"/>
<path d="M8.92855 155.121L24.5684 159.69L25.0068 161.094L9.36692 156.526L8.92855 155.121Z" fill="white"/>
<path d="M6.28017 142.32L21.3227 148.581L21.6039 150.025L6.5614 143.764L6.28017 142.32Z" fill="white"/>
<path d="M22.9875 131.35C22.9967 131.566 22.9679 131.791 22.9013 132.023C22.8468 132.242 22.7608 132.469 22.6433 132.703L21.7065 132.265C21.7769 132.122 21.8352 131.992 21.8812 131.875C21.9267 131.746 21.9465 131.611 21.9406 131.471C21.9265 131.14 21.7478 130.835 21.4044 130.556C21.061 130.278 20.5654 130.018 19.9176 129.778L18.6554 129.334L8.97212 134.183L8.91373 132.808L17.3701 128.796L8.61608 125.801L8.56093 124.503L20.2756 128.749C20.8846 128.978 21.3861 129.225 21.7798 129.488C22.1736 129.752 22.4664 130.039 22.6581 130.35C22.8625 130.66 22.9723 130.993 22.9875 131.35Z" fill="white"/>
<path d="M18.9935 117.98C18.9543 118.706 18.7846 119.366 18.4844 119.962C18.1722 120.545 17.762 121.053 17.2538 121.484C16.7463 121.904 16.1739 122.223 15.5368 122.444C14.9003 122.652 14.2323 122.737 13.5326 122.699C12.5911 122.649 11.7437 122.392 10.9904 121.93C10.2371 121.469 9.65168 120.85 9.23428 120.075C8.81687 119.299 8.63465 118.422 8.68762 117.442C8.73784 116.514 8.99849 115.705 9.46956 115.016C9.92791 114.326 10.529 113.829 11.2727 113.525L11.6053 114.806C11.0813 115.058 10.6656 115.431 10.3582 115.925C10.0388 116.405 9.86253 116.951 9.82951 117.561C9.79374 118.223 9.93281 118.837 10.2467 119.402C10.5606 119.968 11.0076 120.432 11.5877 120.795C12.1684 121.146 12.8404 121.341 13.6038 121.383C14.3544 121.423 15.0439 121.295 15.6725 120.997C16.301 120.699 16.8145 120.287 17.2131 119.76C17.5989 119.232 17.8096 118.637 17.8454 117.976C17.8688 117.543 17.8148 117.126 17.6835 116.723C17.5528 116.308 17.3682 115.947 17.1296 115.64C16.8789 115.321 16.6037 115.102 16.3039 114.983L16.7547 113.725C17.2158 113.929 17.6258 114.251 17.9847 114.691C18.3317 115.118 18.5981 115.618 18.7841 116.189C18.9581 116.747 19.0279 117.344 18.9935 117.98Z" fill="white"/>
<path d="M19.2141 112.286L9.36943 110.796L10.5675 102.879L20.4122 104.369L20.2178 105.654L11.5257 104.338L10.7165 109.686L19.4086 111.001L19.2141 112.286Z" fill="white"/>
<path d="M21.0279 101.692L11.3173 99.492L11.6045 98.2246L21.3151 100.425L21.0279 101.692ZM9.28569 99.0317L7.42185 98.6094L7.70902 97.342L9.57286 97.7643L9.28569 99.0317Z" fill="white"/>
<path d="M12.7416 93.4898L17.328 91.8426L17.647 91.7809L17.418 91.5504L14.5469 87.6268L14.98 86.2205L18.6517 91.3104L24.4958 89.1507L24.0628 90.557L19.5002 92.1915L19.1995 92.2589L19.4102 92.4838L22.2631 96.4017L21.83 97.8081L18.2074 92.7533L12.3141 94.8779L12.7416 93.4898Z" fill="white"/>
<path d="M27.0906 82.5029L18.0869 78.2518L20.2084 73.7586C20.4478 73.2517 20.7585 72.8771 21.1406 72.6348C21.5111 72.3871 21.9043 72.2557 22.32 72.2407C22.7411 72.2141 23.1418 72.2905 23.522 72.4701C24.0059 72.6985 24.3893 73.0204 24.6722 73.4358C24.9436 73.8457 25.0739 74.3158 25.063 74.8461C25.4576 74.3984 25.9269 74.1057 26.4709 73.9681C27.0149 73.8304 27.5634 73.8922 28.1164 74.1533C28.6003 74.3817 28.9637 74.7013 29.2066 75.1118C29.455 75.5109 29.5792 75.964 29.5792 76.4713C29.5847 76.967 29.4623 77.4798 29.212 78.0098L27.0906 82.5029ZM26.7741 80.9798L28.3489 77.6445C28.4904 77.345 28.5433 77.0389 28.5078 76.7262C28.4662 76.3966 28.3513 76.1028 28.1631 75.8449C27.9803 75.5754 27.7507 75.3754 27.4742 75.2449C27.1747 75.1035 26.8713 75.0448 26.5641 75.0688C26.2453 75.0873 25.9567 75.1765 25.6981 75.3362C25.4395 75.4959 25.2395 75.7255 25.0981 76.0251L23.4907 79.4295L26.7741 80.9798ZM22.6784 79.046L24.1227 75.9872C24.2641 75.6876 24.3086 75.3846 24.2561 75.078C24.2036 74.7714 24.0805 74.4949 23.8869 74.2485C23.6933 74.0021 23.4582 73.8137 23.1817 73.6831C22.767 73.4873 22.3388 73.4542 21.8971 73.5838C21.461 73.7019 21.1422 73.9741 20.941 74.4004L19.4641 77.5283L22.6784 79.046Z" fill="white"/>
<path d="M31.1218 73.7707L28.7796 67.8857L22.8956 68.1495L23.6809 66.9051L28.9186 66.6627L29.6122 65.5637L25.9759 63.2688L26.6899 62.1375L30.3262 64.4324L31.0402 63.3011L28.9747 58.5173L29.7702 57.2567L32.0537 62.6978L38.3943 62.2476L37.5885 63.5244L32.0099 63.9131L31.2959 65.0444L35.11 67.4516L34.396 68.5829L30.5819 66.1757L29.8883 67.2747L31.9276 72.4939L31.1218 73.7707Z" fill="white"/>
<path d="M43.0342 56.8663C42.5795 57.4162 42.0543 57.8415 41.4584 58.1423C40.8527 58.435 40.2261 58.603 39.5786 58.6463C38.9214 58.6815 38.271 58.5984 37.6275 58.3969C36.9921 58.1857 36.3995 57.8528 35.8496 57.3981C35.1328 56.8055 34.6089 56.0995 34.2778 55.2803C33.9549 54.4512 33.8562 53.6009 33.9817 52.7293C34.0974 51.8496 34.4597 51.0415 35.0685 50.3051C35.6937 49.549 36.4193 49.0413 37.2453 48.782C38.0795 48.5129 38.93 48.4639 39.7969 48.6351C40.6539 48.7982 41.4359 49.172 42.1429 49.7565C42.2215 49.8215 42.3 49.8864 42.3786 49.9514C42.4473 50.0082 42.4973 50.0578 42.5284 50.1001L37.0972 56.669C37.6876 57.0746 38.3044 57.3283 38.9475 57.4302C39.589 57.5142 40.2078 57.4555 40.8041 57.2542C41.3986 57.0349 41.8989 56.6798 42.3048 56.1889C42.7188 55.6881 42.9809 55.1112 43.0909 54.4583C43.2091 53.7955 43.135 53.2053 42.8687 52.6876L43.8229 52.0134C44.0563 52.4709 44.1863 52.9835 44.213 53.551C44.2397 54.1186 44.1538 54.6924 43.9554 55.2722C43.7553 55.8342 43.4482 56.3655 43.0342 56.8663ZM36.3511 56.1018L41.0395 50.4313C40.4474 50.0078 39.8306 49.7541 39.1891 49.6701C38.5558 49.5763 37.9468 49.6431 37.3621 49.8704C36.7756 50.0799 36.2754 50.435 35.8613 50.9358C35.4473 51.4365 35.1925 51.9946 35.097 52.61C34.9917 53.2172 35.0455 53.832 35.2583 54.4543C35.4695 55.0587 35.8337 55.6079 36.3511 56.1018Z" fill="white"/>
<path d="M52.9096 46.1632L46.9939 39.6604L44.3645 42.0525L43.58 41.1901L49.8001 35.5316L50.5845 36.3939L47.9551 38.7859L53.8708 45.2887L52.9096 46.1632Z" fill="white"/>
<path d="M61.1712 44.515C60.9984 44.6455 60.7975 44.7495 60.5684 44.8267C60.3572 44.9065 60.1217 44.9647 59.8619 45.0013L59.69 43.9814C59.8479 43.9579 59.988 43.9319 60.1102 43.9034C60.2426 43.8673 60.3647 43.807 60.4765 43.7225C60.7408 43.5227 60.8899 43.2024 60.924 42.7615C60.9581 42.3205 60.8898 41.7653 60.7192 41.0957L60.3666 39.8051L50.8724 34.5956L51.9702 33.766L60.0788 38.4416L57.5658 29.5374L58.6026 28.7539L61.7692 40.8052C61.927 41.4366 62.0092 41.9892 62.0161 42.4632C62.0229 42.9371 61.953 43.3412 61.8064 43.6756C61.6675 44.0201 61.4558 44.2999 61.1712 44.515Z" fill="white"/>
<path d="M68.5197 34.2477L63.8825 26.7792L60.8626 28.6543L60.2477 27.6639L67.3914 23.2283L68.0064 24.2187L64.9865 26.0938L69.6237 33.5622L68.5197 34.2477Z" fill="white"/>
<path d="M78.7105 28.6125L74.4594 19.6089L75.6345 19.0541L79.8857 28.0577L78.7105 28.6125ZM73.57 17.7252L72.7541 15.9971L73.9292 15.4422L74.7452 17.1704L73.57 17.7252Z" fill="white"/>
<path d="M89.8692 24.1141C89.0011 24.4104 88.204 24.5007 87.4779 24.385C86.7477 24.2572 86.117 23.9475 85.5857 23.4557L86.4442 22.6579C86.8173 23.0017 87.2621 23.2201 87.7785 23.3131C88.2907 23.3941 88.8543 23.3296 89.4693 23.1197C90.2048 22.8687 90.732 22.5003 91.0508 22.0146C91.3818 21.5247 91.4505 20.9964 91.2571 20.4297C91.0801 19.9112 90.7633 19.5549 90.3067 19.3607C89.85 19.1665 89.3121 19.1684 88.6931 19.3662L87.7345 19.6933L87.4444 18.8433L88.4753 18.4914C88.7406 18.4009 88.957 18.2462 89.1247 18.0275C89.2923 17.8087 89.3953 17.5582 89.4336 17.2759C89.4719 16.9936 89.4396 16.7017 89.3367 16.4003C89.1762 15.93 88.8778 15.6078 88.4414 15.4336C88.017 15.2554 87.4854 15.2753 86.8463 15.4934C86.3158 15.6744 85.9067 15.9352 85.619 16.2757C85.3393 16.6 85.1609 17.0042 85.0837 17.4882L83.9704 17.3028C84.0584 16.6535 84.3203 16.0795 84.7559 15.5808C85.2035 15.078 85.7951 14.7011 86.5306 14.4501C87.1335 14.2443 87.693 14.1678 88.2091 14.2205C88.7331 14.2571 89.1855 14.419 89.5663 14.7064C89.955 14.9776 90.2379 15.3725 90.4148 15.8909C90.5671 16.3371 90.6006 16.7901 90.5152 17.25C90.4257 17.6979 90.221 18.0841 89.901 18.4087C90.5133 18.3882 91.0421 18.5376 91.4876 18.8567C91.9451 19.1717 92.2706 19.6126 92.464 20.1793C92.6574 20.746 92.6734 21.2858 92.5118 21.7986C92.3503 22.3115 92.0413 22.767 91.5848 23.1651C91.1284 23.5632 90.5565 23.8795 89.8692 24.1141Z" fill="white"/>
<path d="M94.226 19.4757C94.0788 18.869 94.1259 18.307 94.3675 17.7895C94.606 17.2597 95 16.8035 95.5497 16.421C96.1086 16.0232 96.7905 15.7266 97.5953 15.5314C98.0658 15.4172 98.5639 15.3357 99.0895 15.2868C99.6152 15.2379 100.094 15.2397 100.526 15.2921L100.328 14.4749C100.13 13.6578 99.7307 13.0663 99.1306 12.7006C98.5306 12.3349 97.8034 12.2557 96.9491 12.463C96.4291 12.5892 95.9393 12.8129 95.4797 13.1342C95.0295 13.4401 94.5771 13.8449 94.1225 14.3485L93.4233 13.5742C93.9496 12.9876 94.4905 12.5155 95.0462 12.1578C95.5988 11.7877 96.1908 11.5261 96.8222 11.3729C98.0108 11.0845 99.0344 11.1966 99.893 11.7094C100.752 12.2221 101.327 13.0789 101.618 14.2799L102.704 18.7558C102.746 18.9291 102.815 19.0501 102.91 19.1188C103.002 19.175 103.131 19.1898 103.295 19.1631L103.538 20.166C103.405 20.2115 103.29 20.2524 103.194 20.2888C103.098 20.3252 103.024 20.3432 102.971 20.3429C102.659 20.4056 102.399 20.3636 102.193 20.217C101.987 20.0703 101.853 19.8932 101.789 19.6858L101.599 18.9845C101.301 19.6468 100.843 20.2169 100.225 20.6946C99.6035 21.16 98.9338 21.4799 98.2157 21.6541C97.5966 21.8043 97.0017 21.811 96.431 21.6742C95.8697 21.522 95.3925 21.2575 94.9996 20.8809C94.616 20.4889 94.3582 20.0205 94.226 19.4757ZM100.888 18.6459C100.982 18.4395 101.047 18.2468 101.082 18.0678C101.117 17.8888 101.12 17.7374 101.09 17.6136L100.747 16.2021C100.287 16.1433 99.8176 16.1262 99.3385 16.1507C98.8717 16.1721 98.4093 16.2385 97.9512 16.3496C97.0473 16.5689 96.3604 16.9257 95.8904 17.42C95.4203 17.9142 95.2604 18.4709 95.4106 19.0899C95.4978 19.449 95.6732 19.767 95.9371 20.0438C96.1979 20.3083 96.5334 20.5022 96.9435 20.6256C97.3506 20.7365 97.7956 20.7334 98.2785 20.6163C98.8852 20.4691 99.42 20.2147 99.8829 19.8533C100.358 19.4889 100.693 19.0864 100.888 18.6459Z" fill="white"/>
<path d="M110.554 19.251C109.733 19.3623 108.965 19.2479 108.251 18.9077C107.549 18.5658 106.965 18.1049 106.501 17.5251L107.326 23.604L106.038 23.7787L104.152 9.87862L105.307 9.7219L105.567 11.6346C105.874 10.9629 106.331 10.3931 106.936 9.92529C107.539 9.44486 108.213 9.15411 108.958 9.05306C109.64 8.96058 110.284 9.02098 110.892 9.23428C111.498 9.43496 112.042 9.74691 112.523 10.1701C113.005 10.5934 113.401 11.0989 113.713 11.6867C114.035 12.2601 114.24 12.8751 114.329 13.5316C114.454 14.4532 114.381 15.3311 114.108 16.1652C113.846 16.985 113.413 17.6739 112.807 18.2318C112.201 18.7897 111.45 19.1294 110.554 19.251ZM110.04 18.1636C110.583 18.0899 111.054 17.9167 111.454 17.6438C111.853 17.3584 112.178 17.0057 112.429 16.5858C112.694 16.1643 112.876 15.7088 112.977 15.2194C113.076 14.7174 113.091 14.2139 113.023 13.7089C112.951 13.1786 112.787 12.6865 112.533 12.2324C112.291 11.7766 111.975 11.3888 111.584 11.0689C111.194 10.7491 110.763 10.5118 110.292 10.3571C109.821 10.2024 109.327 10.1602 108.809 10.2304C108.481 10.2749 108.149 10.3843 107.812 10.5585C107.476 10.7327 107.16 10.962 106.864 11.2464C106.579 11.5165 106.349 11.8113 106.174 12.1308C105.999 12.4503 105.908 12.7776 105.902 13.1127L106.313 16.1426C106.579 16.5824 106.908 16.9685 107.3 17.301C107.69 17.6209 108.122 17.8645 108.595 18.0318C109.078 18.1847 109.56 18.2287 110.04 18.1636Z" fill="white"/>
<path d="M116.76 15.4372C116.74 14.8132 116.902 14.2729 117.245 13.8162C117.587 13.3467 118.067 12.9814 118.683 12.7201C119.312 12.4458 120.04 12.2958 120.868 12.2702C121.352 12.2553 121.856 12.278 122.381 12.3382C122.905 12.3985 123.374 12.4988 123.786 12.639L123.76 11.7985C123.734 10.958 123.465 10.2972 122.953 9.81585C122.441 9.33454 121.746 9.10746 120.867 9.1346C120.332 9.15112 119.807 9.26932 119.291 9.48919C118.787 9.69595 118.261 9.99899 117.713 10.3983L117.188 9.49679C117.824 9.03102 118.45 8.68025 119.067 8.44449C119.684 8.196 120.318 8.06172 120.967 8.04166C122.19 8.0039 123.168 8.32421 123.903 9.00258C124.638 9.68096 125.024 10.6378 125.062 11.873L125.204 16.4766C125.21 16.6548 125.252 16.7874 125.331 16.8742C125.41 16.9482 125.533 16.989 125.699 16.9967L125.73 18.0282C125.591 18.0452 125.47 18.0617 125.369 18.0776C125.267 18.0934 125.191 18.0958 125.139 18.0846C124.821 18.0817 124.576 17.9873 124.404 17.8014C124.233 17.6155 124.137 17.4145 124.118 17.1984L124.076 16.4732C123.648 17.06 123.083 17.5236 122.379 17.864C121.676 18.1916 120.954 18.3669 120.216 18.3897C119.579 18.4093 118.996 18.2935 118.465 18.0422C117.947 17.7778 117.535 17.4209 117.228 16.9715C116.933 16.509 116.777 15.9975 116.76 15.4372ZM123.45 15.9954C123.584 15.8128 123.687 15.6375 123.759 15.4696C123.83 15.3017 123.863 15.1541 123.86 15.0267L123.815 13.575C123.377 13.4228 122.921 13.3094 122.447 13.2348C121.985 13.1599 121.519 13.1297 121.048 13.1442C120.119 13.1729 119.373 13.3808 118.811 13.7678C118.25 14.1548 117.979 14.6666 117.998 15.3034C118.01 15.6727 118.116 16.0199 118.317 16.3451C118.518 16.6576 118.806 16.9164 119.182 17.1214C119.558 17.3138 119.994 17.4023 120.491 17.3869C121.115 17.3677 121.691 17.2288 122.218 16.9703C122.758 16.7114 123.169 16.3865 123.45 15.9954Z" fill="white"/>
<path d="M131.008 18.3971C130.092 18.3405 129.321 18.1205 128.693 17.7371C128.067 17.3409 127.602 16.8143 127.298 16.1573L128.395 15.7465C128.609 16.2065 128.937 16.5778 129.38 16.8604C129.822 17.1303 130.368 17.2853 131.017 17.3254C131.792 17.3734 132.42 17.2334 132.9 16.9057C133.392 16.5787 133.657 16.1164 133.694 15.5187C133.728 14.9719 133.571 14.5218 133.222 14.1684C132.874 13.815 132.376 13.6119 131.728 13.5591L130.717 13.4966L130.773 12.6001L131.86 12.6673C132.14 12.6846 132.399 12.624 132.637 12.4855C132.875 12.3471 133.066 12.1546 133.209 11.9082C133.352 11.6617 133.433 11.3795 133.453 11.0616C133.483 10.5657 133.33 10.1541 132.993 9.82689C132.668 9.50048 132.169 9.31644 131.495 9.27478C130.936 9.2402 130.458 9.32556 130.062 9.53088C129.68 9.72426 129.361 10.0301 129.106 10.4483L128.147 9.85287C128.475 9.286 128.936 8.85493 129.529 8.55968C130.134 8.26521 130.825 8.14195 131.6 8.18989C132.236 8.22919 132.783 8.37147 133.24 8.61673C133.711 8.85006 134.067 9.17208 134.31 9.5828C134.566 9.98158 134.677 10.4544 134.643 11.0012C134.614 11.4717 134.473 11.9033 134.219 12.2961C133.965 12.6762 133.629 12.9553 133.21 13.1336C133.784 13.3478 134.216 13.6873 134.506 14.152C134.809 14.6175 134.942 15.1491 134.905 15.7468C134.868 16.3444 134.678 16.8496 134.333 17.2623C133.988 17.675 133.529 17.9785 132.956 18.1729C132.382 18.3672 131.733 18.4419 131.008 18.3971Z" fill="white"/>
<path d="M153.795 7.96784L142.216 19.4307L140.775 19.1329L152.354 7.67008L153.795 7.96784Z" fill="white"/>
<path d="M166.411 11.8476L153.643 21.9692L152.243 21.515L165.011 11.3934L166.411 11.8476Z" fill="white"/>
<path d="M164.265 25.5784L168.314 16.4821L175.629 19.7384L171.58 28.8347L170.393 28.3062L173.968 20.275L169.027 18.0756L165.452 26.1069L164.265 25.5784Z" fill="white"/>
<path d="M176.892 31.9311C176.273 31.5773 175.764 31.1326 175.365 30.597C174.984 30.0567 174.717 29.4713 174.564 28.8408C174.428 28.2055 174.406 27.5624 174.499 26.9113C174.598 26.2491 174.819 25.6193 175.16 25.0219C175.514 24.4023 175.947 23.887 176.461 23.476C176.981 23.0539 177.551 22.7487 178.172 22.5605C178.799 22.3612 179.439 22.2938 180.092 22.3584C180.762 22.4183 181.407 22.6251 182.026 22.9789C182.646 23.3327 183.146 23.7798 183.527 24.3201C183.915 24.8494 184.182 25.4348 184.329 26.0764C184.482 26.7068 184.51 27.3532 184.41 28.0153C184.317 28.6664 184.094 29.3018 183.74 29.9213C183.399 30.5188 182.968 31.0286 182.448 31.4506C181.935 31.8617 181.365 32.1668 180.737 32.3661C180.127 32.5607 179.487 32.628 178.817 32.5682C178.165 32.5036 177.523 32.2912 176.892 31.9311ZM176.296 25.6924C175.929 26.3341 175.733 26.9994 175.706 27.6884C175.697 28.3727 175.841 29.0055 176.14 29.587C176.445 30.1574 176.886 30.6068 177.461 30.9354C178.036 31.2639 178.65 31.4091 179.303 31.371C179.956 31.3329 180.577 31.1304 181.168 30.7636C181.765 30.3857 182.244 29.8815 182.604 29.2509C182.971 28.6092 183.162 27.9406 183.177 27.2453C183.193 26.55 183.051 25.9116 182.752 25.3301C182.454 24.7487 182.017 24.2937 181.441 23.9652C180.866 23.6366 180.249 23.497 179.59 23.5462C178.942 23.6017 178.322 23.8128 177.732 24.1796C177.147 24.5353 176.668 25.0396 176.296 25.6924Z" fill="white"/>
<path d="M187.794 38.7528L190.22 35.3659C189.777 35.2839 189.345 35.1544 188.923 34.9776C188.509 34.7905 188.094 34.5485 187.68 34.2517C186.789 33.6137 186.279 32.9036 186.15 32.1214C186.031 31.3466 186.309 30.488 186.984 29.5455L188.698 27.1529L189.755 27.9096L188.141 30.1624C187.622 30.8874 187.388 31.5195 187.441 32.0587C187.504 32.6053 187.861 33.1123 188.514 33.5797C188.876 33.8394 189.269 34.0576 189.691 34.2344C190.112 34.4112 190.485 34.5139 190.81 34.5425L193.592 30.6584L194.648 31.4152L188.85 39.5096L187.794 38.7528Z" fill="white"/>
<path d="M191.714 41.6717L198.306 34.2099L199.28 35.0703L196.446 38.2785L200.714 42.0492L203.548 38.841L204.522 39.7015L197.929 47.1632L196.955 46.3028L199.942 42.9228L195.674 39.1521L192.688 42.5321L191.714 41.6717Z" fill="white"/>
<path d="M200.374 49.5107L207.725 42.8234L208.6 43.7847L202.549 49.2888L212.691 48.2531L213.475 49.1154L206.11 55.8156L205.236 54.8543L211.187 49.4401L201.223 50.4437L200.374 49.5107Z" fill="white"/>
<path d="M213.311 65.868C212.908 65.264 212.648 64.6335 212.531 63.9763C212.432 63.3226 212.456 62.6707 212.604 62.0204C212.759 61.3807 213.025 60.7816 213.403 60.223C213.788 59.6751 214.272 59.2065 214.855 58.8175C215.639 58.294 216.471 57.9913 217.35 57.9095C218.23 57.8276 219.07 57.9719 219.868 58.3424C220.667 58.7129 221.339 59.3061 221.884 60.1221C222.4 60.8956 222.676 61.6993 222.712 62.5332C222.759 63.36 222.575 64.1181 222.162 64.8074L221.128 63.9813C221.397 63.4652 221.506 62.9174 221.456 62.3379C221.424 61.7619 221.238 61.2197 220.898 60.711C220.53 60.16 220.051 59.7522 219.461 59.4876C218.871 59.223 218.235 59.1191 217.553 59.1761C216.878 59.2437 216.222 59.4897 215.587 59.9142C214.962 60.3315 214.487 60.8478 214.162 61.4628C213.837 62.0779 213.673 62.7158 213.67 63.3766C213.678 64.0303 213.865 64.6327 214.233 65.1837C214.474 65.5439 214.767 65.8459 215.114 66.0895C215.467 66.3437 215.831 66.5219 216.206 66.6241C216.598 66.7298 216.95 66.7402 217.261 66.6552L217.654 67.9323C217.163 68.0457 216.641 68.0337 216.09 67.8963C215.556 67.7623 215.044 67.5224 214.553 67.1764C214.079 66.834 213.665 66.3978 213.311 65.868Z" fill="white"/>
<path d="M216.664 70.761L225.435 66.0486L227.787 70.4257C228.052 70.9195 228.169 71.3921 228.136 71.8434C228.115 72.2886 227.987 72.6828 227.752 73.026C227.523 73.3805 227.223 73.6572 226.853 73.8562C226.382 74.1094 225.895 74.2263 225.393 74.2069C224.902 74.1814 224.446 74.0067 224.026 73.6827C224.152 74.2661 224.108 74.8175 223.895 75.3368C223.683 75.856 223.307 76.2604 222.768 76.5498C222.297 76.8031 221.824 76.9053 221.349 76.8566C220.881 76.819 220.443 76.6495 220.035 76.348C219.633 76.0577 219.293 75.6544 219.016 75.1381L216.664 70.761ZM218.077 71.4121L219.823 74.6612C219.98 74.953 220.194 75.1776 220.467 75.3349C220.756 75.4974 221.061 75.5796 221.38 75.5817C221.706 75.5949 222.003 75.5292 222.272 75.3845C222.564 75.2277 222.792 75.0186 222.955 74.7573C223.13 74.49 223.229 74.2049 223.255 73.902C223.28 73.5992 223.214 73.3018 223.058 73.01L221.276 69.6935L218.077 71.4121ZM222.067 69.2684L223.668 72.2482C223.825 72.54 224.042 72.756 224.32 72.896C224.597 73.0361 224.893 73.1015 225.206 73.0923C225.519 73.0831 225.811 73.0061 226.08 72.8614C226.484 72.6443 226.765 72.3197 226.924 71.8875C227.088 71.4666 227.059 71.0485 226.835 70.6332L225.198 67.5861L222.067 69.2684Z" fill="white"/>
<path d="M221.546 80.3136L230.642 76.2646L231.17 77.4518L222.074 81.5008L221.546 80.3136ZM232.545 75.4174L234.291 74.6403L234.819 75.8275L233.074 76.6047L232.545 75.4174Z" fill="white"/>
<path d="M223.511 84.6659L232.879 81.3501L233.312 82.5752L225.602 85.3044L235.352 88.2798L235.741 89.3788L226.355 92.7009L225.921 91.4759L233.506 88.7914L223.931 85.855L223.511 84.6659ZM235.514 84.9584C235.225 84.1417 235.194 83.4431 235.421 82.8627C235.648 82.2823 236.056 81.8879 236.645 81.6796L236.963 82.5804C236.603 82.708 236.35 82.9463 236.203 83.2956C236.06 83.6569 236.089 84.1197 236.289 84.6842C236.484 85.2367 236.741 85.5987 237.058 85.7701C237.38 85.9536 237.74 85.9953 238.137 85.8953L238.449 86.7781C237.861 86.9864 237.295 86.9364 236.754 86.628C236.212 86.3197 235.799 85.7631 235.514 84.9584Z" fill="white"/>
<path d="M228.423 100.357L238.203 98.492L239.704 106.358L229.923 108.223L229.68 106.947L238.315 105.3L237.302 99.9869L228.666 101.634L228.423 100.357Z" fill="white"/>
<path d="M230.522 115.685C230.452 114.86 230.604 114.099 230.98 113.402C231.356 112.718 231.846 112.158 232.448 111.723L226.336 112.243L226.226 110.948L240.203 109.76L240.301 110.921L238.378 111.085C239.034 111.425 239.58 111.91 240.017 112.537C240.467 113.164 240.723 113.852 240.787 114.601C240.845 115.286 240.753 115.927 240.509 116.523C240.279 117.118 239.94 117.646 239.493 118.106C239.046 118.566 238.522 118.936 237.919 119.218C237.33 119.511 236.706 119.685 236.046 119.741C235.119 119.82 234.246 119.703 233.426 119.389C232.621 119.087 231.954 118.619 231.427 117.986C230.9 117.353 230.599 116.586 230.522 115.685ZM231.634 115.226C231.68 115.772 231.83 116.251 232.082 116.665C232.347 117.077 232.683 117.419 233.09 117.691C233.498 117.976 233.944 118.181 234.427 118.306C234.924 118.43 235.426 118.471 235.934 118.428C236.467 118.382 236.967 118.244 237.433 118.012C237.9 117.794 238.303 117.497 238.642 117.123C238.981 116.749 239.24 116.331 239.418 115.868C239.596 115.405 239.663 114.914 239.618 114.393C239.59 114.063 239.498 113.726 239.341 113.381C239.183 113.037 238.97 112.709 238.701 112.4C238.445 112.102 238.163 111.857 237.852 111.667C237.542 111.476 237.219 111.369 236.885 111.346L233.838 111.605C233.386 111.848 232.984 112.157 232.632 112.532C232.293 112.907 232.028 113.325 231.838 113.789C231.661 114.265 231.593 114.743 231.634 115.226Z" fill="white"/>
</svg>
