<svg width="23" height="13" viewBox="0 0 23 13" fill="none" xmlns="http://www.w3.org/2000/svg">
<path fill-rule="evenodd" clip-rule="evenodd" d="M16.4725 0.301262C16.2857 0.114009 16.032 0.00877625 15.7675 0.00877625C15.503 0.00877625 15.2493 0.114009 15.0625 0.301262L9.4225 5.94126L10.8325 7.35126L16.4725 1.70126C16.8525 1.32126 16.8525 0.681262 16.4725 0.301262ZM20.7125 0.291262L10.8325 10.1713L7.3525 6.70126C7.16567 6.51401 6.91202 6.40878 6.6475 6.40878C6.38298 6.40878 6.12933 6.51401 5.9425 6.70126C5.5525 7.09126 5.5525 7.72126 5.9425 8.11126L10.1225 12.2913C10.5125 12.6813 11.1425 12.6813 11.5325 12.2913L22.1225 1.71126C22.5125 1.32126 22.5125 0.691262 22.1225 0.301262H22.1125C21.7325 -0.0987381 21.1025 -0.0987381 20.7125 0.291262ZM0.2925 8.12126L4.4725 12.3013C4.8625 12.6913 5.4925 12.6913 5.8825 12.3013L6.5825 11.6013L1.7025 6.70126C1.51567 6.51401 1.26202 6.40878 0.9975 6.40878C0.732982 6.40878 0.479331 6.51401 0.2925 6.70126C-0.0975 7.09126 -0.0975 7.73126 0.2925 8.12126Z" fill="#1E1E1E"/>
</svg>
