<svg width="152" height="30" viewBox="0 0 152 30" fill="none" xmlns="http://www.w3.org/2000/svg">
<path d="M144.398 23.352C143.011 23.352 141.763 22.9894 140.654 22.264C139.566 21.5387 138.702 20.6427 138.062 19.576V29.848H135.885V6.36002H137.838V9.59202C138.499 8.54669 139.384 7.70402 140.493 7.06402C141.603 6.40269 142.787 6.07202 144.046 6.07202C145.198 6.07202 146.254 6.31735 147.214 6.80802C148.174 7.27736 149.006 7.91736 149.71 8.72802C150.414 9.53869 150.958 10.4667 151.342 11.512C151.747 12.536 151.95 13.6027 151.95 14.712C151.95 16.2694 151.63 17.7094 150.99 19.032C150.371 20.3334 149.496 21.3787 148.366 22.168C147.235 22.9574 145.912 23.352 144.398 23.352ZM143.79 21.432C144.707 21.432 145.528 21.2507 146.254 20.888C146.979 20.504 147.597 19.992 148.109 19.352C148.643 18.712 149.048 17.9974 149.326 17.208C149.603 16.3974 149.742 15.5654 149.742 14.712C149.742 13.816 149.582 12.9627 149.262 12.152C148.963 11.3414 148.526 10.6267 147.95 10.008C147.374 9.38936 146.712 8.89869 145.965 8.53602C145.219 8.17336 144.408 7.99202 143.534 7.99202C142.979 7.99202 142.403 8.09869 141.806 8.31202C141.208 8.52536 140.632 8.83469 140.077 9.24002C139.544 9.62402 139.096 10.0614 138.734 10.552C138.371 11.0427 138.147 11.5654 138.062 12.12V17.24C138.403 18.0294 138.862 18.744 139.438 19.384C140.014 20.0027 140.675 20.504 141.422 20.888C142.19 21.2507 142.979 21.432 143.79 21.432Z" fill="white"/>
<path d="M124.304 23.352C123.11 23.352 122 23.128 120.976 22.68C119.952 22.2107 119.067 21.5814 118.32 20.792C117.574 19.9814 116.987 19.0534 116.56 18.008C116.155 16.9627 115.952 15.8427 115.952 14.648C115.952 13.0907 116.304 11.6614 117.008 10.36C117.734 9.05869 118.726 8.02402 119.984 7.25602C121.243 6.46669 122.672 6.07202 124.272 6.07202C125.915 6.07202 127.344 6.46669 128.56 7.25602C129.798 8.04535 130.768 9.09069 131.472 10.392C132.176 11.672 132.528 13.08 132.528 14.616C132.528 14.7867 132.528 14.9574 132.528 15.128C132.528 15.2774 132.518 15.3947 132.496 15.48H118.224C118.331 16.6747 118.662 17.7414 119.216 18.68C119.792 19.5974 120.528 20.3334 121.424 20.888C122.342 21.4214 123.334 21.688 124.4 21.688C125.488 21.688 126.512 21.4107 127.472 20.856C128.454 20.3014 129.136 19.576 129.52 18.68L131.408 19.192C131.067 19.9814 130.544 20.696 129.84 21.336C129.136 21.976 128.304 22.4774 127.344 22.84C126.406 23.1814 125.392 23.352 124.304 23.352ZM118.16 13.912H130.48C130.395 12.696 130.064 11.6294 129.488 10.712C128.934 9.79469 128.198 9.08002 127.28 8.56802C126.384 8.03469 125.392 7.76802 124.304 7.76802C123.216 7.76802 122.224 8.03469 121.328 8.56802C120.432 9.08002 119.696 9.80536 119.12 10.744C118.566 11.6614 118.246 12.7174 118.16 13.912Z" fill="white"/>
<path d="M114.667 22.232C114.496 22.296 114.229 22.4133 113.867 22.584C113.504 22.7547 113.067 22.904 112.555 23.032C112.043 23.16 111.488 23.224 110.891 23.224C110.272 23.224 109.685 23.1067 109.131 22.872C108.597 22.6373 108.171 22.2853 107.851 21.816C107.531 21.3253 107.371 20.728 107.371 20.024V8.088H105.067V6.36H107.371V0.727997H109.547V6.36H113.387V8.088H109.547V19.416C109.589 20.0133 109.803 20.4613 110.187 20.76C110.592 21.0587 111.051 21.208 111.563 21.208C112.16 21.208 112.704 21.112 113.195 20.92C113.685 20.7067 113.984 20.5573 114.091 20.472L114.667 22.232Z" fill="white"/>
<path d="M101.238 4.56801C100.918 4.20534 100.545 3.88534 100.118 3.60801C99.6918 3.30934 99.2118 3.05334 98.6785 2.84001C98.1452 2.62667 97.5692 2.45601 96.9505 2.32801C96.3532 2.20001 95.7132 2.13601 95.0305 2.13601C93.0465 2.13601 91.5852 2.52001 90.6465 3.28801C89.7292 4.03467 89.2705 5.05868 89.2705 6.36001C89.2705 7.25601 89.4838 7.96001 89.9105 8.47201C90.3585 8.98401 91.0518 9.40001 91.9905 9.72001C92.9292 10.04 94.1238 10.3707 95.5745 10.712C97.1958 11.0533 98.5932 11.4587 99.7665 11.928C100.94 12.3973 101.846 13.0373 102.486 13.848C103.126 14.6373 103.446 15.7147 103.446 17.08C103.446 18.1253 103.244 19.032 102.838 19.8C102.433 20.568 101.868 21.208 101.142 21.72C100.417 22.232 99.5532 22.616 98.5505 22.872C97.5478 23.1067 96.4492 23.224 95.2545 23.224C94.0812 23.224 92.9505 23.1067 91.8625 22.872C90.7958 22.616 89.7825 22.2533 88.8225 21.784C87.8625 21.2933 86.9665 20.6747 86.1345 19.928L87.2545 18.104C87.6598 18.5307 88.1398 18.936 88.6945 19.32C89.2705 19.6827 89.8998 20.0133 90.5825 20.312C91.2865 20.6107 92.0332 20.8453 92.8225 21.016C93.6332 21.1653 94.4652 21.24 95.3185 21.24C97.1318 21.24 98.5398 20.9093 99.5425 20.248C100.566 19.5867 101.078 18.6053 101.078 17.304C101.078 16.3653 100.822 15.6187 100.31 15.064C99.7985 14.488 99.0305 14.0187 98.0065 13.656C96.9825 13.2933 95.7238 12.9413 94.2305 12.6C92.6518 12.2373 91.3185 11.832 90.2305 11.384C89.1425 10.936 88.3212 10.3493 87.7665 9.62401C87.2332 8.87734 86.9665 7.89601 86.9665 6.68001C86.9665 5.27201 87.3078 4.08801 87.9905 3.12801C88.6945 2.14667 89.6545 1.41067 90.8705 0.920008C92.0865 0.408008 93.4838 0.152008 95.0625 0.152008C96.0652 0.152008 96.9932 0.258675 97.8465 0.472008C98.7212 0.664008 99.5212 0.952008 100.246 1.33601C100.993 1.72001 101.686 2.20001 102.326 2.77601L101.238 4.56801Z" fill="white"/>
<path d="M80.8246 23.9205L77.3166 19.1916L81.2744 16.2555L84.7825 20.9844L80.8246 23.9205Z" fill="white"/>
<path d="M76.7983 22.104C76.2436 22.3387 75.6463 22.5627 75.0063 22.776C74.3876 22.968 73.7476 23.1173 73.0863 23.224C72.4463 23.3307 71.8169 23.384 71.1983 23.384C70.2809 23.384 69.4383 23.2347 68.6703 22.936C67.9023 22.616 67.2836 22.104 66.8143 21.4C66.3663 20.6747 66.1423 19.704 66.1423 18.488V10.776H64.0623V6.20001H66.1423V0.920013H72.2223V6.20001H75.5183V10.776H72.2223V16.344C72.2223 16.8987 72.3396 17.2933 72.5743 17.528C72.8089 17.7413 73.1289 17.848 73.5343 17.848C73.8329 17.848 74.1743 17.7947 74.5583 17.688C74.9423 17.5813 75.3263 17.4533 75.7103 17.304L76.7983 22.104Z" fill="white"/>
<path d="M51.8795 6.20001L54.2795 10.328L54.5995 11L54.9195 10.328L57.3195 6.20001H63.4955L58.0875 14.52L63.6555 23.032H57.4795L54.8875 18.904L54.5995 18.264L54.3115 18.904L51.7195 23.032H45.5435L51.1115 14.68L45.7035 6.20001H51.8795Z" fill="white"/>
<path d="M36.7158 23.352C35.2438 23.352 33.9318 23.128 32.7798 22.68C31.6278 22.2107 30.6571 21.5813 29.8678 20.792C29.0998 20.0027 28.5131 19.096 28.1078 18.072C27.7024 17.048 27.4998 15.9707 27.4998 14.84C27.4998 13.2187 27.8518 11.736 28.5558 10.392C29.2598 9.02667 30.2944 7.93867 31.6598 7.12801C33.0251 6.296 34.7104 5.88 36.7158 5.88C38.7211 5.88 40.4064 6.28534 41.7718 7.096C43.1371 7.90667 44.1718 8.97334 44.8758 10.296C45.5798 11.6187 45.9318 13.0587 45.9318 14.616C45.9318 14.936 45.9104 15.2667 45.8678 15.608C45.8464 15.928 45.8144 16.216 45.7718 16.472H33.9638C34.0064 17.0693 34.1664 17.56 34.4438 17.944C34.7424 18.3067 35.1051 18.5733 35.5318 18.744C35.9798 18.9147 36.4384 19 36.9078 19C37.5691 19 38.1878 18.8507 38.7638 18.552C39.3611 18.2533 39.7558 17.8373 39.9478 17.304L45.0998 18.776C44.6518 19.672 44.0224 20.4613 43.2118 21.144C42.4224 21.8267 41.4838 22.3707 40.3958 22.776C39.3078 23.16 38.0811 23.352 36.7158 23.352ZM33.8358 12.824H39.4038C39.3398 12.2693 39.1798 11.8 38.9238 11.416C38.6891 11.032 38.3691 10.7333 37.9638 10.52C37.5798 10.3067 37.1318 10.2 36.6198 10.2C36.1078 10.2 35.6491 10.3067 35.2438 10.52C34.8598 10.7333 34.5398 11.032 34.2838 11.416C34.0491 11.8 33.8998 12.2693 33.8358 12.824Z" fill="white"/>
<path d="M6.24 11.864V23.032H0V0.312012H4.864L19.984 11.864V0.312012H26.224V23.032H21.264L6.24 11.864Z" fill="#F1BB01"/>
</svg>
