<svg width="118" height="105" viewBox="0 0 118 105" fill="none" xmlns="http://www.w3.org/2000/svg">
<path d="M83.7281 30.1547C99.1301 50.3925 95.2167 79.2956 74.9509 94.6975C54.7131 110.1 25.81 106.186 10.408 85.9204C-4.99392 65.6826 -1.0805 36.7795 19.1852 21.3776C39.423 5.97559 68.3262 9.88893 83.7281 30.1547Z" stroke="white" stroke-linecap="round" stroke-linejoin="round"/>
<path d="M67.264 84.6068C52.5888 95.7599 31.6523 92.9367 20.4991 78.2615C9.346 63.5863 12.1692 42.6497 26.8444 31.4966C41.5196 20.3434 62.4562 23.1666 73.6094 37.8418C84.7625 52.517 81.9392 73.4537 67.264 84.6068Z" stroke="white" stroke-linecap="round" stroke-linejoin="round"/>
<path d="M67.5407 60.799C69.101 49.4821 61.1916 39.043 49.8747 37.4827C38.5577 35.9224 28.1186 43.8317 26.5583 55.1487C24.998 66.4657 32.9074 76.9048 44.2243 78.4651C55.5413 80.0253 65.9804 72.116 67.5407 60.799Z" stroke="white" stroke-linecap="round" stroke-linejoin="round"/>
<path d="M53.4274 53.1879C56.1108 56.7099 55.412 61.7134 51.9179 64.3969C48.4238 67.0803 43.3923 66.3815 40.7088 62.8874C38.0253 59.3654 38.7242 54.3619 42.2183 51.6784C45.7124 48.9949 50.7439 49.6938 53.4274 53.1879Z" stroke="white" stroke-linecap="round" stroke-linejoin="round"/>
<path d="M47.0822 58.0512L102.177 16.1221" stroke="white" stroke-linecap="round" stroke-linejoin="round"/>
<path d="M99.0741 18.4705L101.422 1" stroke="white" stroke-linecap="round" stroke-linejoin="round"/>
<path d="M93.6515 22.5515L96.0275 5.08105" stroke="white" stroke-linecap="round" stroke-linejoin="round"/>
<path d="M88.2565 26.6604L90.6325 9.18994" stroke="white" stroke-linecap="round" stroke-linejoin="round"/>
<path d="M106.202 28.7573L88.7318 26.3813" stroke="white" stroke-linecap="round" stroke-linejoin="round"/>
<path d="M111.569 24.6485L94.0985 22.2725" stroke="white" stroke-linecap="round" stroke-linejoin="round"/>
<path d="M116.964 20.5386L99.4935 18.1626" stroke="white" stroke-linecap="round" stroke-linejoin="round"/>
</svg>
